# This file uses centimeters as units for non-parametric coordinates.

mtllib Low Poly Fish.mtl
g default
v -0.113416 0.106152 -1.567600
v -0.113416 -0.307883 -1.567600
v -0.000000 -0.514900 -1.567600
v 0.113416 -0.307883 -1.567600
v 0.113416 0.106152 -1.567600
v 0.000000 0.313169 -1.567600
v -0.471233 0.500000 1.000000
v -0.471233 -0.500000 1.000000
v -0.000000 -1.000000 1.000000
v 0.471233 -0.500000 1.000000
v 0.471233 0.500000 1.000000
v 0.000000 1.000000 1.000000
v -0.355870 0.308822 2.212489
v -0.355870 -0.446368 2.212489
v -0.000000 -0.823963 2.212489
v 0.355870 -0.446368 2.212489
v 0.355870 0.308822 2.212489
v 0.000000 0.686416 2.212489
v -0.211561 0.169896 2.690141
v -0.211561 -0.279056 2.690141
v 0.000000 -0.190375 2.782415
v -0.000000 -0.503532 2.690141
v 0.211561 -0.279056 2.690141
v 0.211561 0.169896 2.690141
v 0.000000 0.394372 2.690141
v -0.041188 0.207212 -2.286383
v -0.041188 -0.408943 -2.286383
v -0.000000 -0.100865 -2.286388
v -0.000000 -0.717021 -2.286388
v 0.041188 -0.408943 -2.286383
v 0.041188 0.207212 -2.286383
v -0.000000 0.515290 -2.286388
v -0.329781 0.296586 -0.375204
v -0.329781 -0.420932 -0.375204
v -0.000000 -0.779691 -0.375204
v 0.329781 -0.420932 -0.375204
v 0.329781 0.296586 -0.375204
v 0.000000 0.655344 -0.375204
v 0.041188 -0.100866 -2.286383
v -0.041188 -0.100866 -2.286383
v 0.113416 -0.100866 -1.567600
v 0.329781 -0.062173 -0.375204
v 0.471233 -0.000000 1.000000
v 0.355870 -0.068773 2.212489
v 0.211561 -0.190375 2.782415
v -0.211561 -0.190375 2.782415
v -0.355870 -0.068773 2.212489
v -0.471233 0.000000 1.000000
v -0.329781 -0.062173 -0.375204
v -0.113416 -0.100865 -1.567600
v -0.000000 0.138420 2.963119
v -0.000000 -0.169112 3.081412
v -0.123937 0.098186 2.899279
v -0.123937 -0.168330 2.906324
v 0.123937 -0.168330 2.906324
v 0.123937 0.098186 2.899279
v -0.000000 -0.218330 3.017981
v -0.116281 -0.218330 2.906325
v -0.116281 -0.282829 2.906323
v -0.000000 -0.374397 2.920191
v 0.116281 -0.282829 2.906323
v 0.116281 -0.218330 2.906325
vt 0.578125 0.020934
vt 0.421875 0.020934
vt 0.343750 0.156250
vt 0.421875 0.291566
vt 0.578125 0.291566
vt 0.656250 0.156250
vt 0.375000 0.312500
vt 0.416667 0.312500
vt 0.458333 0.312500
vt 0.500000 0.312500
vt 0.541667 0.312500
vt 0.583333 0.312500
vt 0.625000 0.312500
vt 0.375000 0.688440
vt 0.416667 0.688440
vt 0.458333 0.688440
vt 0.500000 0.688440
vt 0.541667 0.688440
vt 0.583333 0.688440
vt 0.625000 0.688440
vt 0.578125 0.708434
vt 0.421875 0.708434
vt 0.343750 0.843750
vt 0.421875 0.979066
vt 0.578125 0.979066
vt 0.656250 0.843750
vt 0.500000 0.150000
vt 0.500000 0.837500
vt 0.578125 0.979066
vt 0.421875 0.979066
vt 0.343750 0.843750
vt 0.421875 0.708434
vt 0.578125 0.708434
vt 0.656250 0.843750
vt 0.578125 0.979066
vt 0.421875 0.979066
vt 0.343750 0.843750
vt 0.421875 0.708434
vt 0.578125 0.708434
vt 0.656250 0.843750
vt 0.421875 0.020934
vt 0.578125 0.020934
vt 0.343750 0.156250
vt 0.421875 0.291566
vt 0.578125 0.291566
vt 0.656250 0.156250
vt 0.625000 0.485993
vt 0.375000 0.485993
vt 0.416667 0.485993
vt 0.458333 0.485993
vt 0.500000 0.485993
vt 0.541667 0.485993
vt 0.583333 0.485993
vt 0.500000 0.291566
vt 0.500000 0.020934
vt 0.520833 0.312500
vt 0.500000 0.291566
vt 0.520833 0.485993
vt 0.500000 0.708434
vt 0.520833 0.688440
vt 0.500000 0.708434
vt 0.500000 0.708434
vt 0.500000 0.979066
vt 0.500000 0.979066
vt 0.500000 0.979066
vt 0.395833 0.688440
vt 0.395833 0.485993
vt 0.395833 0.312500
vt 0.500000 0.020934
vt 0.656250 0.843750
vt 0.578125 0.979066
vt 0.500000 0.979066
vt 0.500000 0.837500
vt 0.500000 0.708434
vt 0.578125 0.708434
vt 0.500000 0.837500
vt 0.500000 0.979066
vt 0.421875 0.979066
vt 0.343750 0.843750
vt 0.421875 0.708434
vt 0.500000 0.708434
vn -0.994752 0.000000 -0.102319
vn -0.991473 0.000000 -0.130312
vn -0.991688 0.000000 -0.128666
vn -0.994752 0.000000 -0.102319
vn -0.742224 -0.657853 -0.127802
vn -0.743460 -0.656190 -0.129157
vn -0.726733 -0.677866 -0.111160
vn -0.726733 -0.677866 -0.111160
vn 0.743460 -0.656191 -0.129157
vn 0.742224 -0.657853 -0.127802
vn 0.726733 -0.677866 -0.111160
vn 0.726733 -0.677866 -0.111160
vn 0.991688 -0.000000 -0.128666
vn 0.991473 -0.000000 -0.130312
vn 0.994752 0.000000 -0.102319
vn 0.994752 0.000000 -0.102319
vn 0.736545 0.651579 -0.181512
vn 0.736703 0.651371 -0.181617
vn 0.720498 0.672050 -0.170973
vn 0.720498 0.672050 -0.170973
vn -0.736703 0.651371 -0.181617
vn -0.736544 0.651580 -0.181512
vn -0.720498 0.672050 -0.170973
vn -0.720498 0.672050 -0.170973
vn -0.000119 0.000000 -1.000000
vn -0.000121 0.000000 -1.000000
vn -0.000002 0.000000 -1.000000
vn -0.000002 -0.000000 -1.000000
vn 0.000119 0.000000 -1.000000
vn 0.000117 -0.000000 -1.000000
vn -0.000002 0.000000 -1.000000
vn -0.000122 0.000000 -1.000000
vn -0.000000 -0.405313 0.914178
vn -0.546757 -0.339365 0.765434
vn -0.546757 -0.339365 0.765433
vn -0.000000 -0.405313 0.914178
vn 0.546757 -0.339365 0.765434
vn 0.546757 -0.339365 0.765434
vn -0.000000 0.213315 0.976983
vn -0.000001 0.213315 0.976983
vn -0.698346 0.152683 0.699286
vn -0.698346 0.152683 0.699286
vn -0.995504 0.000000 0.094718
vn -0.995504 0.000000 0.094718
vn -0.995504 0.000000 0.094718
vn -0.995504 0.000000 0.094718
vn -0.724150 -0.682486 0.099088
vn -0.724150 -0.682486 0.099088
vn -0.724150 -0.682486 0.099088
vn -0.724150 -0.682486 0.099088
vn 0.724150 -0.682487 0.099088
vn 0.724150 -0.682487 0.099088
vn 0.724150 -0.682487 0.099088
vn 0.724150 -0.682487 0.099088
vn 0.995504 0.000000 0.094718
vn 0.995504 0.000000 0.094718
vn 0.995504 0.000000 0.094718
vn 0.995504 0.000000 0.094718
vn 0.716546 0.675320 0.174657
vn 0.716546 0.675320 0.174657
vn 0.716546 0.675320 0.174657
vn 0.716546 0.675320 0.174657
vn -0.716546 0.675320 0.174657
vn -0.716546 0.675320 0.174657
vn -0.716546 0.675320 0.174657
vn -0.716546 0.675320 0.174657
vn -0.948935 0.017521 0.314984
vn -0.962404 0.004928 0.271578
vn -0.962135 -0.052915 0.267387
vn -0.962135 -0.052915 0.267387
vn -0.661111 -0.623073 0.417986
vn -0.661111 -0.623073 0.417986
vn -0.661111 -0.623073 0.417986
vn -0.661111 -0.623073 0.417986
vn 0.661110 -0.623074 0.417987
vn 0.661110 -0.623074 0.417987
vn 0.661110 -0.623074 0.417987
vn 0.661110 -0.623074 0.417987
vn 0.962135 -0.052915 0.267387
vn 0.962404 0.004928 0.271578
vn 0.948935 0.017521 0.314984
vn 0.962135 -0.052915 0.267387
vn 0.671112 0.632500 0.386720
vn 0.671112 0.632500 0.386720
vn 0.658384 0.631017 0.410302
vn 0.658875 0.631082 0.409414
vn -0.671111 0.632500 0.386721
vn -0.671111 0.632500 0.386721
vn -0.658875 0.631082 0.409414
vn -0.658384 0.631018 0.410302
vn -0.994989 0.000000 -0.099983
vn -0.994989 0.000000 -0.099983
vn -0.994989 0.000000 -0.099983
vn -0.994989 0.000000 -0.099983
vn -0.957713 -0.287454 0.012505
vn -0.957713 -0.287454 0.012505
vn -0.957713 -0.287454 0.012505
vn -0.957713 -0.287454 0.012505
vn 0.957713 -0.287455 0.012505
vn 0.957713 -0.287454 0.012505
vn 0.957713 -0.287455 0.012505
vn 0.957713 -0.287454 0.012505
vn 0.994989 0.000000 -0.099983
vn 0.994989 0.000000 -0.099983
vn 0.994989 0.000000 -0.099983
vn 0.994989 0.000000 -0.099983
vn 0.957713 0.287455 0.012505
vn 0.957713 0.287455 0.012505
vn 0.957713 0.287455 0.012505
vn 0.957713 0.287455 0.012505
vn -0.957713 0.287455 0.012505
vn -0.957713 0.287455 0.012505
vn -0.957713 0.287455 0.012505
vn -0.957713 0.287455 0.012505
vn -0.983933 0.000000 -0.178539
vn -0.983933 0.000000 -0.178539
vn -0.776202 -0.608032 -0.166757
vn -0.776202 -0.608032 -0.166757
vn 0.776201 -0.608033 -0.166757
vn 0.776201 -0.608033 -0.166757
vn 0.983933 -0.000000 -0.178539
vn 0.983933 -0.000000 -0.178539
vn 0.770552 0.603607 -0.204717
vn 0.770552 0.603607 -0.204717
vn -0.770552 0.603607 -0.204717
vn -0.770552 0.603607 -0.204717
vn 0.994989 0.000000 -0.099983
vn 0.994989 0.000000 -0.099983
vn 0.983933 0.000000 -0.178539
vn 0.991895 0.000000 -0.127062
vn 0.994752 0.000000 -0.102319
vn 0.995504 0.000000 0.094718
vn 0.995504 0.000000 0.094718
vn 0.961307 0.034184 0.273351
vn 0.952414 0.040005 0.302170
vn 0.698345 0.152683 0.699287
vn 0.698345 0.152683 0.699287
vn -0.961307 0.034184 0.273351
vn -0.952414 0.040005 0.302169
vn -0.995504 0.000000 0.094718
vn -0.995504 0.000000 0.094718
vn -0.991895 0.000000 -0.127062
vn -0.994752 0.000000 -0.102319
vn -0.983933 0.000000 -0.178539
vn -0.994989 0.000000 -0.099983
vn -0.994989 0.000000 -0.099983
vn 0.000116 -0.000000 -1.000000
vn -0.586370 0.616438 0.525523
vn -0.586370 0.616438 0.525524
vn -0.877822 0.074964 0.473084
vn -0.877822 0.074964 0.473084
vn -0.062006 -0.991500 0.114382
vn -0.000000 -0.993411 0.114603
vn -0.000000 -0.993411 0.114603
vn -0.062006 -0.991500 0.114382
vn 0.062006 -0.991500 0.114382
vn 0.062006 -0.991500 0.114382
vn 0.877822 0.074964 0.473084
vn 0.877822 0.074964 0.473084
vn 0.586370 0.616437 0.525524
vn 0.586370 0.616437 0.525524
vn -0.057300 0.984079 0.168245
vn -0.057300 0.984078 0.168245
vn -0.057300 0.984078 0.168245
vn -0.057300 0.984078 0.168245
vn -0.850159 -0.271691 0.451014
vn -0.850159 -0.271691 0.451014
vn -0.850159 -0.271691 0.451014
vn -0.850159 -0.271691 0.451014
vn -0.662278 -0.672505 0.330339
vn -0.662278 -0.672505 0.330339
vn -0.662278 -0.672505 0.330339
vn -0.662278 -0.672505 0.330339
vn 0.662278 -0.672506 0.330339
vn 0.662278 -0.672506 0.330339
vn 0.662278 -0.672506 0.330339
vn 0.662278 -0.672506 0.330339
vn 0.850159 -0.271691 0.451013
vn 0.850160 -0.271691 0.451013
vn 0.850159 -0.271691 0.451013
vn 0.850159 -0.271691 0.451013
vn 0.057300 0.984079 0.168245
vn 0.057300 0.984079 0.168245
vn 0.057300 0.984079 0.168245
vn 0.057300 0.984078 0.168245
s 1
g pCylinder1
usemtl initialShadingGroup
f 48/66/1 49/67/2 34/49/3 8/15/4
s 2
f 34/49/5 35/50/6 9/16/7 8/15/8
s 3
f 35/50/9 36/51/10 10/17/11 9/16/12
s 4
f 36/51/13 42/58/14 43/60/15 10/17/16
s 5
f 37/52/17 38/53/18 12/19/19 11/18/20
s 6
f 38/53/21 33/47/22 7/20/23 12/19/24
s 7
f 27/41/25 40/55/26 28/27/27 29/43/28
f 31/45/29 39/54/30 28/27/27 32/46/31
f 26/42/32 32/46/31 28/27/27 40/55/26
s 8
f 57/76/33 58/77/34 59/78/35 60/79/36
f 57/76/33 60/79/36 61/80/37 62/81/38
s 9
f 52/73/39 51/70/40 53/71/41 54/72/42
s 10
f 47/64/43 48/65/44 8/24/45 14/30/46
s off
f 8/24/47 9/23/48 15/31/49 14/30/50
f 9/23/51 10/22/52 16/32/53 15/31/54
s 11
f 10/22/55 43/59/56 44/61/57 16/32/58
s off
f 11/21/59 12/26/60 18/34/61 17/33/62
f 12/26/63 7/25/64 13/29/65 18/34/66
s 12
f 46/63/67 47/64/68 14/30/69 20/36/70
s off
f 14/30/71 15/31/72 22/37/73 20/36/74
f 15/31/75 16/32/76 23/38/77 22/37/78
s 13
f 16/32/79 44/61/80 45/62/81 23/38/82
s 14
f 17/33/83 18/34/84 25/40/85 24/39/86
s 15
f 18/34/87 13/29/88 19/35/89 25/40/90
s 16
f 2/2/91 50/69/92 40/55/93 27/41/94
s off
f 3/3/95 2/2/96 27/41/97 29/43/98
f 4/4/99 3/3/100 29/43/101 30/44/102
s 17
f 39/54/103 41/57/104 4/4/105 30/44/106
s off
f 6/6/107 5/5/108 31/45/109 32/46/110
f 1/1/111 6/6/112 32/46/113 26/42/114
s 1
f 49/67/2 50/68/115 2/8/116 34/49/3
s 2
f 2/8/117 3/9/118 35/50/6 34/49/5
s 3
f 3/9/119 4/10/120 36/51/10 35/50/9
s 4
f 4/10/121 41/56/122 42/58/14 36/51/13
s 5
f 5/11/123 6/12/124 38/53/18 37/52/17
s 6
f 6/12/125 1/13/126 33/47/22 38/53/21
s 17
f 5/5/127 41/57/104 39/54/103 31/45/128
s 4
f 42/58/14 41/56/122 5/11/129 37/52/130
f 43/60/15 42/58/14 37/52/130 11/18/131
s 11
f 44/61/57 43/59/56 11/21/132 17/33/133
s 13
f 45/62/81 44/61/80 17/33/134 24/39/135
s 9
f 52/73/39 55/74/136 56/75/137 51/70/40
s 12
f 13/29/138 47/64/68 46/63/67 19/35/139
s 10
f 7/25/140 48/65/44 47/64/43 13/29/141
s 1
f 33/48/142 49/67/2 48/66/1 7/14/143
f 1/7/144 50/68/115 49/67/2 33/48/142
s 16
f 40/55/93 50/69/92 1/1/145 26/42/146
s 7
f 30/44/147 29/43/28 28/27/27 39/54/30
s 15
f 25/40/90 19/35/89 53/71/148 51/70/149
s 12
f 19/35/139 46/63/67 54/72/150 53/71/151
s 18
f 46/63/152 21/28/153 52/73/154 54/72/155
f 21/28/153 45/62/156 55/74/157 52/73/154
s 13
f 45/62/81 24/39/135 56/75/158 55/74/159
s 14
f 24/39/86 25/40/85 51/70/160 56/75/161
s off
f 21/28/162 46/63/163 58/77/164 57/76/165
f 46/63/166 20/36/167 59/78/168 58/77/169
f 20/36/170 22/37/171 60/79/172 59/78/173
f 22/37/174 23/38/175 61/80/176 60/79/177
f 23/38/178 45/62/179 62/81/180 61/80/181
f 45/62/182 21/28/183 57/76/184 62/81/185
