# This file uses centimeters as units for non-parametric coordinates.

mtllib Mole.mtl
g default
v -2.321347 0.498437 -1.032146
v 2.321347 0.892588 -0.807917
v -2.321347 1.352426 -1.032146
v 2.321347 2.037363 -0.807917
v -1.857078 0.498437 -0.869718
v -1.857078 1.813698 -1.032146
v 1.485662 0.498437 -0.869718
v 1.485662 2.273886 -1.032146
v -2.321347 1.352426 -0.032146
v -1.857078 1.813698 -0.032146
v 1.485662 2.273886 -0.032146
v 2.321347 2.199448 -0.032146
v 2.321347 0.730502 -0.032146
v 1.485662 0.498437 -0.032146
v -1.857078 0.498437 -0.032146
v -2.321347 0.498437 -0.032146
v -1.857078 0.146608 -0.032146
v -2.321347 0.146608 -0.032146
v -1.857078 0.146608 -1.032146
v -2.321347 0.146608 -1.032146
v -1.235949 0.498437 -1.584049
v -1.235949 0.498437 -0.584049
v -1.235949 0.146608 -1.584049
v -1.235949 0.146608 -0.584049
v -0.874756 0.498437 -1.755190
v -0.874756 0.498437 -1.022331
v -0.874756 0.146608 -1.755190
v -0.874756 0.146608 -1.022331
v -0.369103 0.498437 -1.456514
v -0.369103 0.498437 -1.321007
v -0.369103 0.146608 -1.456514
v -0.369103 0.146608 -1.321007
v 0.445786 0.498437 -0.869718
v 0.445786 0.498437 -0.032146
v 0.445786 1.864924 -0.032146
v 0.445786 1.864924 -1.032146
v 1.485662 0.160518 -0.032146
v 1.485662 0.160518 -1.032146
v 2.321347 0.160518 -0.032146
v 2.321347 0.160518 -1.032146
v 3.088942 0.498437 -0.609107
v 3.088942 0.498437 -1.102079
v 3.088942 0.160518 -1.102079
v 3.088942 0.160518 -0.609107
v 3.372434 0.373218 -0.424240
v 3.372434 0.373218 -0.917212
v 3.372434 0.160518 -0.917212
v 3.372434 0.160518 -0.424240
v -2.321347 0.498437 1.000000
v 2.321347 0.892588 0.775771
v -2.321347 1.352426 1.000000
v 2.321347 2.037363 0.775771
v -1.857078 0.498437 0.837572
v -1.857078 1.813698 1.000000
v 1.485662 0.498437 0.837572
v 1.485662 2.273886 1.000000
v -2.321347 1.352426 0.000000
v -1.857078 1.813698 0.000000
v 1.485662 2.273886 0.000000
v 2.321347 2.199448 0.000000
v 2.321347 0.730502 0.000000
v 1.485662 0.498437 0.000000
v -1.857078 0.498437 0.000000
v -2.321347 0.498437 0.000000
v -1.857078 0.146608 0.000000
v -2.321347 0.146608 0.000000
v -1.857078 0.146608 1.000000
v -2.321347 0.146608 1.000000
v -1.235949 0.498437 1.551903
v -1.235949 0.498437 0.551903
v -1.235949 0.146608 1.551903
v -1.235949 0.146608 0.551903
v -0.874756 0.498437 1.723044
v -0.874756 0.498437 0.990185
v -0.874756 0.146608 1.723044
v -0.874756 0.146608 0.990185
v -0.369103 0.498437 1.424368
v -0.369103 0.498437 1.288861
v -0.369103 0.146608 1.424368
v -0.369103 0.146608 1.288861
v 0.445786 0.498437 0.837572
v 0.445786 0.498437 0.000000
v 0.445786 1.864924 0.000000
v 0.445786 1.864924 1.000000
v 1.485662 0.160518 0.000000
v 1.485662 0.160518 1.000000
v 2.321347 0.160518 0.000000
v 2.321347 0.160518 1.000000
v 3.088942 0.498437 0.576961
v 3.088942 0.498437 1.069933
v 3.088942 0.160518 1.069933
v 3.088942 0.160518 0.576961
v 3.372434 0.373218 0.392094
v 3.372434 0.373218 0.885066
v 3.372434 0.160518 0.885066
v 3.372434 0.160518 0.392094
v 3.105114 1.155602 -0.615352
v 3.105114 1.774349 -0.615352
v 3.105114 1.774349 -0.233844
v 3.105114 1.155602 -0.233844
v 3.105114 1.155602 0.201698
v 3.105114 1.155602 0.583206
v 3.105114 1.774349 0.201698
v 3.105114 1.774349 0.583206
v 3.689802 1.638895 -0.138497
v 3.689802 1.291056 -0.138497
v 3.689802 1.638895 0.106350
v 3.689802 1.291056 0.106350
vt 0.375000 0.000000
vt 0.625000 0.000000
vt 0.375000 0.250000
vt 0.625000 0.250000
vt 0.375000 1.000000
vt 0.625000 1.000000
vt 0.400000 0.000000
vt 0.400000 1.000000
vt 0.400000 0.250000
vt 0.580000 0.000000
vt 0.580000 1.000000
vt 0.580000 0.250000
vt 0.250000 0.250000
vt 0.375000 0.375000
vt 0.400000 0.375000
vt 0.580000 0.375000
vt 0.625000 0.375000
vt 0.750000 0.250000
vt 0.625000 0.875000
vt 0.750000 0.000000
vt 0.580000 0.875000
vt 0.400000 0.875000
vt 0.250000 0.000000
vt 0.375000 0.875000
vt 0.375000 0.875000
vt 0.400000 0.875000
vt 0.400000 1.000000
vt 0.375000 1.000000
vt 0.400000 0.875000
vt 0.400000 1.000000
vt 0.400000 1.000000
vt 0.400000 0.875000
vt 0.400000 0.875000
vt 0.400000 1.000000
vt 0.400000 1.000000
vt 0.400000 0.875000
vt 0.400000 0.875000
vt 0.400000 1.000000
vt 0.400000 1.000000
vt 0.400000 0.875000
vt 0.524005 0.000000
vt 0.524005 1.000000
vt 0.524005 0.875000
vt 0.524005 0.375000
vt 0.524005 0.250000
vt 0.580000 1.000000
vt 0.580000 0.875000
vt 0.625000 0.875000
vt 0.625000 1.000000
vt 0.625000 0.875000
vt 0.625000 1.000000
vt 0.625000 1.000000
vt 0.625000 0.875000
vt 0.625000 0.875000
vt 0.625000 1.000000
vt 0.625000 1.000000
vt 0.625000 0.875000
vt 0.524005 0.250000
vt 0.524005 0.000000
vt 0.580000 0.000000
vt 0.580000 0.250000
vt 0.375000 0.000000
vt 0.400000 0.000000
vt 0.400000 0.250000
vt 0.375000 0.250000
vt 0.625000 0.000000
vt 0.625000 0.250000
vt 0.400000 0.375000
vt 0.375000 0.375000
vt 0.580000 0.375000
vt 0.524005 0.375000
vt 0.625000 0.375000
vt 0.750000 0.000000
vt 0.750000 0.250000
vt 0.580000 1.000000
vt 0.580000 0.875000
vt 0.625000 0.875000
vt 0.625000 1.000000
vt 0.524005 1.000000
vt 0.524005 0.875000
vt 0.580000 0.875000
vt 0.580000 1.000000
vt 0.375000 0.875000
vt 0.400000 0.875000
vt 0.400000 1.000000
vt 0.375000 1.000000
vt 0.250000 0.250000
vt 0.250000 0.000000
vt 0.375000 0.875000
vt 0.400000 0.875000
vt 0.400000 0.875000
vt 0.400000 1.000000
vt 0.400000 1.000000
vt 0.400000 0.875000
vt 0.400000 1.000000
vt 0.375000 1.000000
vt 0.400000 1.000000
vt 0.400000 0.875000
vt 0.400000 1.000000
vt 0.400000 0.875000
vt 0.400000 1.000000
vt 0.400000 0.875000
vt 0.400000 1.000000
vt 0.400000 0.875000
vt 0.625000 0.875000
vt 0.625000 0.875000
vt 0.625000 1.000000
vt 0.625000 1.000000
vt 0.625000 0.875000
vt 0.625000 1.000000
vt 0.625000 1.000000
vt 0.625000 0.875000
vt 0.625000 1.000000
vt 0.625000 0.875000
vt 0.625000 0.000000
vt 0.625000 0.250000
vt 0.750000 0.250000
vt 0.750000 0.000000
vt 0.625000 0.000000
vt 0.750000 0.000000
vt 0.750000 0.250000
vt 0.625000 0.250000
vt 0.750000 0.000000
vt 0.750000 0.250000
vt 0.750000 0.250000
vt 0.750000 0.000000
vn 0.008862 -0.113319 -0.993519
vn 0.088988 -0.081574 -0.992687
vn 0.074691 -0.086039 -0.993488
vn 0.007864 -0.114241 -0.993422
vn 0.206954 -0.073052 -0.975619
vn 0.206954 -0.073052 -0.975619
vn 0.017112 -0.116827 -0.993005
vn 0.030033 -0.113994 -0.993027
vn 0.173440 -0.054694 -0.983325
vn 0.173440 -0.054694 -0.983325
vn -0.704813 0.709393 0.000000
vn -0.704813 0.709393 0.000000
vn -0.182112 0.983278 0.000000
vn -0.182112 0.983278 0.000000
vn -0.145276 0.988677 -0.037578
vn -0.169150 0.985015 -0.033672
vn -0.136382 0.990656 0.000000
vn -0.136382 0.990656 0.000000
vn 0.193734 0.976993 -0.089176
vn 0.193734 0.976993 -0.089176
vn 0.539685 -0.420053 -0.729586
vn 0.539686 0.420053 -0.729586
vn 0.628238 0.773571 -0.083095
vn 0.628238 -0.773571 -0.083095
vn 0.000000 -1.000000 0.000000
vn 0.000000 -1.000000 0.000000
vn 0.000000 -1.000000 0.000000
vn 0.000000 -1.000000 0.000000
vn 0.000000 -1.000000 0.000000
vn 0.000000 -1.000000 0.000000
vn 0.000000 -1.000000 0.000000
vn 0.000000 -1.000000 0.000000
vn 0.000000 -1.000000 0.000000
vn 0.000000 -1.000000 0.000000
vn 0.000000 -1.000000 0.000000
vn 0.000000 -1.000000 0.000000
vn -1.000000 0.000000 0.000000
vn -1.000000 0.000000 0.000000
vn -1.000000 0.000000 0.000000
vn -1.000000 0.000000 0.000000
vn 0.000000 0.000000 1.000000
vn 0.000000 0.000000 1.000000
vn 0.000000 0.000000 1.000000
vn 0.000000 0.000000 1.000000
vn 1.000000 0.000000 0.000000
vn 1.000000 0.000000 0.000000
vn 1.000000 0.000000 0.000000
vn 1.000000 0.000000 0.000000
vn 0.168024 0.221722 -0.960525
vn 0.168023 0.221722 -0.960525
vn 0.168023 0.221722 -0.960525
vn 0.168023 0.221722 -0.960525
vn -1.000000 0.000000 0.000000
vn -1.000000 0.000000 0.000000
vn -1.000000 0.000000 0.000000
vn -1.000000 0.000000 0.000000
vn 0.000000 1.000000 0.000000
vn 0.000000 1.000000 0.000000
vn 0.000000 1.000000 0.000000
vn 0.000000 1.000000 0.000000
vn -0.704684 0.159585 -0.691341
vn -0.704684 0.159585 -0.691341
vn -0.704684 0.159585 -0.691341
vn -0.704684 0.159585 -0.691341
vn 0.000000 -1.000000 0.000000
vn 0.000000 -1.000000 0.000000
vn 0.000000 -1.000000 0.000000
vn 0.000000 -1.000000 0.000000
vn 0.664221 -0.000000 0.747536
vn 0.664221 -0.000000 0.747536
vn 0.664221 -0.000000 0.747536
vn 0.664222 -0.000000 0.747536
vn 0.000000 1.000000 0.000000
vn 0.000000 1.000000 0.000000
vn 0.000000 1.000000 0.000000
vn 0.000000 1.000000 0.000000
vn -0.428188 0.000000 -0.903690
vn -0.428188 0.000000 -0.903690
vn -0.428188 0.000000 -0.903690
vn -0.428188 0.000000 -0.903690
vn 0.000000 -1.000000 0.000000
vn 0.000000 -1.000000 0.000000
vn 0.000000 -1.000000 0.000000
vn 0.000000 -1.000000 0.000000
vn 0.771710 0.000000 0.635974
vn 0.647719 0.000000 0.761879
vn 0.647719 0.000000 0.761879
vn 0.771710 0.000000 0.635974
vn 0.000000 1.000000 0.000000
vn 0.000000 1.000000 0.000000
vn 0.508579 0.000000 -0.861015
vn 0.508579 0.000000 -0.861015
vn 0.508579 0.000000 -0.861015
vn 0.508579 0.000000 -0.861015
vn 0.000000 -1.000000 0.000000
vn 0.000000 -1.000000 0.000000
vn 0.508579 0.000000 0.861015
vn 0.508579 0.000000 0.861015
vn 0.000000 -1.000000 0.000000
vn 0.000000 -1.000000 0.000000
vn -1.000000 0.000000 0.000000
vn -1.000000 0.000000 0.000000
vn -1.000000 0.000000 0.000000
vn -1.000000 0.000000 0.000000
vn -0.000000 0.000000 1.000000
vn -0.000000 0.000000 1.000000
vn -0.000000 0.000000 1.000000
vn -0.000000 0.000000 1.000000
vn 1.000000 0.000000 0.000000
vn 1.000000 0.000000 0.000000
vn 1.000000 0.000000 0.000000
vn 1.000000 0.000000 0.000000
vn -0.045325 0.339508 -0.939511
vn -0.045325 0.339508 -0.939511
vn -0.045325 0.339508 -0.939511
vn -0.045325 0.339508 -0.939511
vn 0.430182 0.895465 0.114398
vn 0.430182 0.895465 0.114398
vn 0.430182 0.895465 0.114398
vn 0.430182 0.895465 0.114398
vn -0.176642 0.201882 -0.963349
vn -0.176642 0.201882 -0.963349
vn -0.176642 0.201882 -0.963349
vn -0.176642 0.201882 -0.963349
vn 0.000000 -1.000000 0.000000
vn 0.000000 -1.000000 0.000000
vn 0.000000 -1.000000 0.000000
vn 0.000000 -1.000000 0.000000
vn 0.600843 -0.000000 0.799367
vn 0.600843 -0.000000 0.799367
vn 0.600843 -0.000000 0.799367
vn 0.600843 -0.000000 0.799367
vn 0.404042 0.914741 0.000000
vn 0.404042 0.914741 0.000000
vn 0.404042 0.914741 0.000000
vn 0.404042 0.914741 0.000000
vn 0.546228 0.000000 -0.837637
vn 0.546228 0.000000 -0.837637
vn 0.546228 0.000000 -0.837637
vn 0.546228 0.000000 -0.837637
vn 0.000000 -1.000000 0.000000
vn 0.000000 -1.000000 0.000000
vn 0.000000 -1.000000 0.000000
vn 0.000000 -1.000000 0.000000
vn -0.546228 0.000000 0.837637
vn -0.546228 0.000000 0.837637
vn -0.546228 0.000000 0.837637
vn -0.546228 0.000000 0.837637
vn 0.008862 -0.113319 0.993519
vn 0.007864 -0.114241 0.993422
vn 0.074691 -0.086039 0.993488
vn 0.088988 -0.081574 0.992687
vn 0.206954 -0.073052 0.975619
vn 0.030033 -0.113994 0.993027
vn 0.017111 -0.116827 0.993005
vn 0.206954 -0.073052 0.975619
vn 0.173440 -0.054694 0.983325
vn 0.173440 -0.054694 0.983325
vn -0.704813 0.709393 0.000000
vn -0.182112 0.983278 0.000000
vn -0.182112 0.983278 0.000000
vn -0.704813 0.709393 0.000000
vn -0.145276 0.988677 0.037578
vn -0.136382 0.990656 0.000000
vn -0.136382 0.990656 0.000000
vn -0.169150 0.985015 0.033672
vn 0.193734 0.976993 0.089176
vn 0.193734 0.976993 0.089176
vn 0.539686 -0.420053 0.729586
vn 0.628238 -0.773571 0.083095
vn 0.628238 0.773571 0.083095
vn 0.539686 0.420053 0.729586
vn 0.000000 -1.000000 0.000000
vn 0.000000 -1.000000 0.000000
vn 0.000000 -1.000000 0.000000
vn 0.000000 -1.000000 0.000000
vn 0.000000 -1.000000 0.000000
vn 0.000000 -1.000000 0.000000
vn 0.000000 -1.000000 0.000000
vn 0.000000 -1.000000 0.000000
vn 0.000000 -1.000000 0.000000
vn 0.000000 -1.000000 0.000000
vn 0.000000 -1.000000 0.000000
vn 0.000000 -1.000000 0.000000
vn -1.000000 0.000000 0.000000
vn -1.000000 0.000000 0.000000
vn -1.000000 0.000000 0.000000
vn -1.000000 0.000000 0.000000
vn 0.000000 0.000000 -1.000000
vn 0.000000 0.000000 -1.000000
vn 0.000000 0.000000 -1.000000
vn 0.000000 0.000000 -1.000000
vn 1.000000 0.000000 0.000000
vn 1.000000 0.000000 0.000000
vn 1.000000 0.000000 0.000000
vn 1.000000 0.000000 0.000000
vn 0.168024 0.221722 0.960525
vn 0.168023 0.221722 0.960525
vn 0.168023 0.221722 0.960525
vn 0.168023 0.221722 0.960525
vn -1.000000 0.000000 0.000000
vn -1.000000 0.000000 0.000000
vn -1.000000 0.000000 0.000000
vn -1.000000 0.000000 0.000000
vn 0.000000 1.000000 0.000000
vn 0.000000 1.000000 0.000000
vn 0.000000 1.000000 0.000000
vn 0.000000 1.000000 0.000000
vn -0.704684 0.159585 0.691341
vn -0.704684 0.159585 0.691341
vn -0.704684 0.159585 0.691341
vn -0.704684 0.159585 0.691341
vn 0.000000 -1.000000 0.000000
vn 0.000000 -1.000000 0.000000
vn 0.000000 -1.000000 0.000000
vn 0.000000 -1.000000 0.000000
vn 0.664222 0.000000 -0.747536
vn 0.664222 0.000000 -0.747536
vn 0.664222 0.000000 -0.747536
vn 0.664222 0.000000 -0.747536
vn 0.000000 1.000000 0.000000
vn 0.000000 1.000000 0.000000
vn 0.000000 1.000000 0.000000
vn 0.000000 1.000000 0.000000
vn -0.428188 0.000000 0.903690
vn -0.428188 0.000000 0.903690
vn -0.428188 0.000000 0.903690
vn -0.428188 0.000000 0.903690
vn 0.000000 -1.000000 0.000000
vn 0.000000 -1.000000 0.000000
vn 0.000000 -1.000000 0.000000
vn 0.000000 -1.000000 0.000000
vn 0.771710 0.000000 -0.635974
vn 0.771710 0.000000 -0.635974
vn 0.647719 0.000000 -0.761879
vn 0.647719 0.000000 -0.761879
vn 0.000000 1.000000 0.000000
vn 0.000000 1.000000 0.000000
vn 0.508579 0.000000 0.861015
vn 0.508579 0.000000 0.861015
vn 0.508579 0.000000 0.861015
vn 0.508579 0.000000 0.861015
vn 0.000000 -1.000000 0.000000
vn 0.000000 -1.000000 0.000000
vn 0.508579 0.000000 -0.861015
vn 0.508579 0.000000 -0.861015
vn 0.000000 -1.000000 0.000000
vn 0.000000 -1.000000 0.000000
vn -1.000000 0.000000 0.000000
vn -1.000000 0.000000 0.000000
vn -1.000000 0.000000 0.000000
vn -1.000000 0.000000 0.000000
vn 0.000000 0.000000 -1.000000
vn 0.000000 0.000000 -1.000000
vn 0.000000 0.000000 -1.000000
vn 0.000000 0.000000 -1.000000
vn 1.000000 0.000000 0.000000
vn 1.000000 0.000000 0.000000
vn 1.000000 0.000000 0.000000
vn 1.000000 0.000000 0.000000
vn -0.045325 0.339508 0.939511
vn -0.045325 0.339508 0.939511
vn -0.045325 0.339508 0.939511
vn -0.045325 0.339508 0.939511
vn 0.430182 0.895465 -0.114398
vn 0.430182 0.895465 -0.114398
vn 0.430181 0.895465 -0.114398
vn 0.430182 0.895465 -0.114398
vn -0.176642 0.201882 0.963349
vn -0.176642 0.201882 0.963349
vn -0.176642 0.201882 0.963349
vn -0.176642 0.201882 0.963349
vn 0.000000 -1.000000 0.000000
vn 0.000000 -1.000000 0.000000
vn 0.000000 -1.000000 0.000000
vn 0.000000 -1.000000 0.000000
vn 0.600843 0.000000 -0.799367
vn 0.600843 0.000000 -0.799367
vn 0.600843 0.000000 -0.799367
vn 0.600843 0.000000 -0.799367
vn 0.404042 0.914741 0.000000
vn 0.404042 0.914741 0.000000
vn 0.404042 0.914741 0.000000
vn 0.404042 0.914741 0.000000
vn 0.546228 0.000000 0.837637
vn 0.546228 0.000000 0.837637
vn 0.546228 0.000000 0.837637
vn 0.546228 0.000000 0.837637
vn 0.000000 -1.000000 0.000000
vn 0.000000 -1.000000 0.000000
vn 0.000000 -1.000000 0.000000
vn 0.000000 -1.000000 0.000000
vn -0.546228 0.000000 -0.837637
vn -0.546228 0.000000 -0.837637
vn -0.546228 0.000000 -0.837637
vn -0.546228 0.000000 -0.837637
vn -0.704813 0.709393 0.000000
vn -0.704813 0.709393 0.000000
vn -0.704813 0.709393 0.000000
vn -0.704813 0.709393 0.000000
vn -1.000000 0.000000 0.000000
vn -1.000000 0.000000 0.000000
vn -1.000000 0.000000 0.000000
vn -1.000000 0.000000 0.000000
vn 0.000000 -1.000000 0.000000
vn 0.000000 -1.000000 0.000000
vn 0.000000 -1.000000 0.000000
vn 0.000000 -1.000000 0.000000
vn 0.000000 -1.000000 0.000000
vn 0.000000 -1.000000 0.000000
vn 0.000000 -1.000000 0.000000
vn 0.000000 -1.000000 0.000000
vn 0.000000 -1.000000 0.000000
vn 0.000000 -1.000000 0.000000
vn 0.000000 -1.000000 0.000000
vn 0.000000 -1.000000 0.000000
vn 0.267570 -0.963539 0.000000
vn 0.267570 -0.963539 0.000000
vn 0.267570 -0.963539 0.000000
vn 0.267570 -0.963539 0.000000
vn 1.000000 0.000000 0.000000
vn 1.000000 0.000000 0.000000
vn 1.000000 0.000000 0.000000
vn 1.000000 0.000000 0.000000
vn 0.088722 0.996056 0.000000
vn 0.088722 0.996056 0.000000
vn 0.088722 0.996056 0.000000
vn 0.088722 0.996056 0.000000
vn -0.365993 0.930618 0.000000
vn -0.365993 0.930618 0.000000
vn -0.365993 0.930618 0.000000
vn -0.365993 0.930618 0.000000
vn -0.022239 0.999753 0.000000
vn -0.022239 0.999753 0.000000
vn -0.022239 0.999753 0.000000
vn -0.022239 0.999753 0.000000
vn 0.393976 -0.510816 -0.764101
vn 0.393976 0.510816 -0.764101
vn 0.428657 0.899928 -0.079889
vn 0.428657 -0.899929 -0.079889
vn 0.393976 -0.510816 0.764101
vn 0.428657 -0.899929 0.079889
vn 0.428657 0.899928 0.079889
vn 0.393976 0.510816 0.764101
vn 0.160949 0.000000 -0.986963
vn 0.160949 0.000000 -0.986963
vn 0.160949 0.000000 -0.986963
vn 0.160949 0.000000 -0.986963
vn 0.225692 0.974199 0.000000
vn 0.225692 0.974199 0.000000
vn 0.225692 0.974199 0.000000
vn 0.225692 0.974199 0.000000
vn 0.160949 0.000000 0.986963
vn 0.160949 0.000000 0.986963
vn 0.160949 0.000000 0.986963
vn 0.160949 0.000000 0.986963
vn 0.225692 -0.974199 0.000000
vn 0.225692 -0.974199 0.000000
vn 0.225692 -0.974199 0.000000
vn 0.225692 -0.974199 0.000000
s 1
g pCube3
usemtl initialShadingGroup
f 36/45/1 8/12/2 7/10/3 33/41/4
f 1/1/5 3/3/6 6/9/7 5/7/8
f 8/12/2 4/4/9 2/2/10 7/10/3
s 2
f 3/3/11 9/14/12 10/15/13 6/9/14
f 11/16/15 8/12/16 36/45/17 35/44/18
f 12/17/19 4/4/20 8/12/16 11/16/15
s 4
f 97/115/21 98/116/22 99/117/23 100/118/24
s off
f 38/46/25 40/49/26 39/48/27 37/47/28
s 5
f 33/42/29 7/11/30 14/21/31 34/43/32
s off
f 18/25/33 20/28/34 19/27/35 17/26/36
f 9/13/37 3/3/38 1/1/39 16/23/40
f 16/24/41 18/25/42 17/26/43 15/22/44
f 30/37/45 32/40/46 31/39/47 29/38/48
f 5/8/49 19/27/50 20/28/51 1/5/52
f 1/5/53 20/28/54 18/25/55 16/24/56
f 15/22/57 22/29/58 21/30/59 5/8/60
f 5/8/61 21/30/62 23/31/63 19/27/64
f 19/27/65 23/31/66 24/32/67 17/26/68
f 17/26/69 24/32/70 22/29/71 15/22/72
s 6
f 22/29/73 26/33/74 25/34/75 21/30/76
s off
f 21/30/77 25/34/78 27/35/79 23/31/80
s 7
f 23/31/81 27/35/82 28/36/83 24/32/84
s 8
f 24/32/85 28/36/86 26/33/87 22/29/88
s 6
f 26/33/74 30/37/89 29/38/90 25/34/75
s off
f 25/34/91 29/38/92 31/39/93 27/35/94
s 7
f 27/35/82 31/39/95 32/40/96 28/36/83
s 8
f 28/36/86 32/40/97 30/37/98 26/33/87
s 5
f 5/8/99 33/42/29 34/43/32 15/22/100
s 2
f 36/45/17 6/9/14 10/15/13 35/44/18
s 1
f 6/9/7 36/45/1 33/41/4 5/7/8
s off
f 7/11/101 38/46/102 37/47/103 14/21/104
f 14/21/105 37/47/106 39/48/107 13/19/108
f 45/54/109 48/57/110 47/56/111 46/55/112
f 2/6/113 40/49/114 38/46/115 7/11/116
f 13/19/117 41/50/118 42/51/119 2/6/120
f 2/6/121 42/51/122 43/52/123 40/49/124
f 40/49/125 43/52/126 44/53/127 39/48/128
f 39/48/129 44/53/130 41/50/131 13/19/132
f 41/50/133 45/54/134 46/55/135 42/51/136
f 42/51/137 46/55/138 47/56/139 43/52/140
f 43/52/141 47/56/142 48/57/143 44/53/144
f 44/53/145 48/57/146 45/54/147 41/50/148
s 9
f 84/58/149 81/59/150 55/60/151 56/61/152
f 49/62/153 53/63/154 54/64/155 51/65/156
f 56/61/152 55/60/151 50/66/157 52/67/158
s 10
f 51/65/159 54/64/160 58/68/161 57/69/162
f 59/70/163 83/71/164 84/58/165 56/61/166
f 60/72/167 59/70/163 56/61/166 52/67/168
s 4
f 102/119/169 101/120/170 103/121/171 104/122/172
s off
f 86/75/173 85/76/174 87/77/175 88/78/176
s 12
f 81/79/177 82/80/178 62/81/179 55/82/180
s off
f 66/83/181 65/84/182 67/85/183 68/86/184
f 57/87/185 64/88/186 49/62/187 51/65/188
f 64/89/189 63/90/190 65/84/191 66/83/192
f 78/91/193 77/92/194 79/93/195 80/94/196
f 53/95/197 49/96/198 68/86/199 67/85/200
f 49/96/201 64/89/202 66/83/203 68/86/204
f 63/90/205 53/95/206 69/97/207 70/98/208
f 53/95/209 67/85/210 71/99/211 69/97/212
f 67/85/213 65/84/214 72/100/215 71/99/216
f 65/84/217 63/90/218 70/98/219 72/100/220
s 13
f 70/98/221 69/97/222 73/101/223 74/102/224
s off
f 69/97/225 71/99/226 75/103/227 73/101/228
s 14
f 71/99/229 72/100/230 76/104/231 75/103/232
s 15
f 72/100/233 70/98/234 74/102/235 76/104/236
s 13
f 74/102/224 73/101/223 77/92/237 78/91/238
s off
f 73/101/239 75/103/240 79/93/241 77/92/242
s 14
f 75/103/232 76/104/231 80/94/243 79/93/244
s 15
f 76/104/236 74/102/235 78/91/245 80/94/246
s 12
f 53/95/247 63/90/248 82/80/178 81/79/177
s 10
f 84/58/165 83/71/164 58/68/161 54/64/160
s 9
f 54/64/155 53/63/154 81/59/150 84/58/149
s off
f 55/82/249 62/81/250 85/76/251 86/75/252
f 62/81/253 61/105/254 87/77/255 85/76/256
f 93/106/257 94/107/258 95/108/259 96/109/260
f 50/110/261 55/82/262 86/75/263 88/78/264
f 61/105/265 50/110/266 90/111/267 89/112/268
f 50/110/269 88/78/270 91/113/271 90/111/272
f 88/78/273 87/77/274 92/114/275 91/113/276
f 87/77/277 61/105/278 89/112/279 92/114/280
f 89/112/281 90/111/282 94/107/283 93/106/284
f 90/111/285 91/113/286 95/108/287 94/107/288
f 91/113/289 92/114/290 96/109/291 95/108/292
f 92/114/293 89/112/294 93/106/295 96/109/296
f 10/15/297 9/14/298 57/69/299 58/68/300
f 9/13/301 16/23/302 64/88/303 57/87/304
f 16/24/305 15/22/306 63/90/307 64/89/308
f 15/22/309 34/43/310 82/80/311 63/90/312
f 34/43/313 14/21/314 62/81/315 82/80/316
f 14/21/317 13/19/318 61/105/319 62/81/320
f 106/123/321 105/124/322 107/125/323 108/126/324
f 12/17/325 11/16/326 59/70/327 60/72/328
f 11/16/329 35/44/330 83/71/331 59/70/332
f 35/44/333 10/15/334 58/68/335 83/71/336
s 4
f 2/2/337 4/4/338 98/116/22 97/115/21
f 4/4/338 12/18/339 99/117/23 98/116/22
f 13/20/340 2/2/337 97/115/21 100/118/24
f 50/66/341 61/73/342 101/120/170 102/119/169
f 60/74/343 52/67/344 104/122/172 103/121/171
f 52/67/344 50/66/341 102/119/169 104/122/172
f 12/18/339 60/74/343 103/121/171 99/117/23
f 61/73/342 13/20/340 100/118/24 101/120/170
s off
f 100/118/345 99/117/346 105/124/347 106/123/348
f 99/117/349 103/121/350 107/125/351 105/124/352
f 103/121/353 101/120/354 108/126/355 107/125/356
f 101/120/357 100/118/358 106/123/359 108/126/360
